<svg xmlns="http://www.w3.org/2000/svg" width="229" height="90" viewBox="0 0 229 90" fill="none"><path fill-rule="evenodd" clip-rule="evenodd" d="M11.5507 0.592745C6.27581 2.28594 6.46749 8.41046 11.8307 9.53599L13.2075 9.82515L13.123 13.4743C12.977 19.8048 10.5047 30.0983 4.69028 48.5862C-1.35385 67.8059 -1.46015 70.8327 3.81555 73.4847C10.5372 76.8639 11.6164 75.9972 17.88 62.1945C29.672 36.2075 40.6072 19.371 45.6933 19.371C47.1371 19.371 44.8775 32.3217 40.0471 51.7312C35.5757 69.6978 35.6871 70.8592 42.0108 72.2142C49.3967 73.7969 50.1916 73.1205 64.6151 52.9757C72.4236 42.0701 73.1938 41.1267 72.8864 42.8489C72.2042 46.6708 72.5064 60.2914 73.3398 63.2748C76.8985 76.0143 90.6875 79.6805 92.8186 68.4542C93.6767 63.9341 88.9291 49.385 87.9707 53.5975C87.8503 54.1255 87.8426 53.3949 87.9528 51.9747C88.2563 48.0612 89.5199 43.1411 92.9023 32.7034C97.0339 19.9528 96.54 18.727 87.2757 18.7356C80.0144 18.742 79.8343 18.8605 68.6639 30.9714C63.5363 36.5308 59.283 41.0209 59.2117 40.9501C59.1409 40.8789 59.5554 38.8701 60.1334 36.486C64.9242 16.7203 62.0639 6.37393 51.393 4.86669C45.6963 4.06231 40.5999 6.19565 35.0864 11.6928C31.3843 15.3841 31.351 15.405 31.351 14.0594C31.351 5.33541 20.2655 -2.20466 11.5507 0.592745ZM219.83 2.67022C218.283 3.61534 207.877 13.2465 198.375 22.5293C194.555 26.2598 191.364 29.2347 191.283 29.14C191.202 29.0449 190.714 26.0884 190.198 22.5698C188.091 8.2083 187.205 7.03031 178.222 6.66054C167.463 6.21741 161.183 11.8711 168.541 15.376C172.36 17.1959 176.453 30.7777 176.497 41.7797C176.498 42.0236 173.593 45.5742 170.04 49.6699C166.489 53.7651 161.619 59.4192 159.22 62.2341L154.858 67.3521H152.551H150.244L149.683 65.2196C147.858 58.2805 150.965 44.688 156.909 33.6058C159.495 28.7834 159.543 27.6417 157.26 25.1275C156.494 24.2843 156.507 24.2753 158.304 24.4182C166.038 25.0328 164.921 13.1817 156.788 8.33497C143.506 0.419587 128.193 4.85432 114.138 20.6868C93.4547 43.9864 87.7124 64.0591 99.1595 73.045C107.996 79.9816 117.666 75.2389 130.55 57.6505L133.595 53.4939L133.845 57.224C134.102 61.0489 134.19 61.5078 135.391 65.2814C136.874 69.9405 140.867 74.2712 144.605 75.2743C148.147 76.2241 148.066 76.1316 146.798 77.8039C142.346 83.6785 142.726 88.831 147.689 89.9079C150.292 90.4726 152.127 88.68 160.083 77.8013C165.826 69.9495 168.606 66.5503 174.355 60.3516L179.266 55.057L179.815 57.1528C184.851 76.3644 190.307 81.2175 202.327 77.1778C212.709 73.6881 217.367 68.351 213.136 64.794C211.572 63.4791 210.94 63.5115 206.804 65.1207C200.287 67.6562 194.94 60.0475 193.346 45.9705L193.062 43.4643L197.908 38.9652C205.564 31.8568 214.174 24.2621 221.043 18.556C228.053 12.733 229.008 11.5512 229 8.70858C228.986 3.68742 223.778 0.258371 219.83 2.67022ZM150.372 16.9873C151.966 17.819 153.605 19.6649 154.717 21.8788L155.655 23.7465L154.368 22.8312C149.105 19.0878 145.806 19.3621 142.696 23.8019C129.21 43.0549 112.219 62.4474 108.835 62.4474C106.621 62.4474 111.09 51.6019 116.809 43.0971C129.621 24.042 143.381 13.3382 150.372 16.9873Z" fill="white"></path></svg>